<svg width="187" height="37" viewBox="0 0 187 37" fill="none" xmlns="http://www.w3.org/2000/svg">
<path d="M7.63636 27.5H1.72159V10.0455H7.75568C9.48864 10.0455 10.9773 10.3949 12.2216 11.0938C13.4716 11.7869 14.4318 12.7841 15.1023 14.0852C15.7727 15.3864 16.108 16.9432 16.108 18.7557C16.108 20.5739 15.7699 22.1364 15.0938 23.4432C14.4233 24.75 13.4545 25.7528 12.1875 26.4517C10.9261 27.1506 9.40909 27.5 7.63636 27.5ZM4.88352 24.7642H7.48295C8.69886 24.7642 9.71307 24.5426 10.5256 24.0994C11.3381 23.6506 11.9489 22.983 12.358 22.0966C12.767 21.2045 12.9716 20.0909 12.9716 18.7557C12.9716 17.4205 12.767 16.3125 12.358 15.4318C11.9489 14.5455 11.3438 13.8835 10.5426 13.446C9.74716 13.0028 8.75852 12.7812 7.5767 12.7812H4.88352V24.7642ZM27.3196 21.9943V14.4091H30.4048V27.5H27.4134V25.1733H27.277C26.9815 25.9062 26.4957 26.5057 25.8196 26.9716C25.1491 27.4375 24.3224 27.6705 23.3395 27.6705C22.4815 27.6705 21.723 27.4801 21.0639 27.0994C20.4105 26.7131 19.8991 26.1534 19.5298 25.4205C19.1605 24.6818 18.9759 23.7898 18.9759 22.7443V14.4091H22.0611V22.267C22.0611 23.0966 22.2884 23.7557 22.7429 24.2443C23.1974 24.733 23.794 24.9773 24.5327 24.9773C24.9872 24.9773 25.4276 24.8665 25.8537 24.6449C26.2798 24.4233 26.6293 24.0938 26.902 23.6562C27.1804 23.2131 27.3196 22.6591 27.3196 21.9943ZM39.2876 27.7557C38.0092 27.7557 36.9013 27.4744 35.9638 26.9119C35.0263 26.3494 34.299 25.5625 33.782 24.5511C33.2706 23.5398 33.0149 22.358 33.0149 21.0057C33.0149 19.6534 33.2706 18.4687 33.782 17.4517C34.299 16.4347 35.0263 15.6449 35.9638 15.0824C36.9013 14.5199 38.0092 14.2386 39.2876 14.2386C40.5661 14.2386 41.674 14.5199 42.6115 15.0824C43.549 15.6449 44.2734 16.4347 44.7848 17.4517C45.3018 18.4687 45.5604 19.6534 45.5604 21.0057C45.5604 22.358 45.3018 23.5398 44.7848 24.5511C44.2734 25.5625 43.549 26.3494 42.6115 26.9119C41.674 27.4744 40.5661 27.7557 39.2876 27.7557ZM39.3047 25.2841C39.9979 25.2841 40.5774 25.0937 41.0433 24.7131C41.5092 24.3267 41.8558 23.8097 42.0831 23.1619C42.3161 22.5142 42.4325 21.7926 42.4325 20.9972C42.4325 20.196 42.3161 19.4716 42.0831 18.8239C41.8558 18.1705 41.5092 17.6506 41.0433 17.2642C40.5774 16.8778 39.9979 16.6847 39.3047 16.6847C38.5945 16.6847 38.0036 16.8778 37.532 17.2642C37.0661 17.6506 36.7166 18.1705 36.4837 18.8239C36.2564 19.4716 36.1428 20.196 36.1428 20.9972C36.1428 21.7926 36.2564 22.5142 36.4837 23.1619C36.7166 23.8097 37.0661 24.3267 37.532 24.7131C38.0036 25.0937 38.5945 25.2841 39.3047 25.2841ZM54.7159 14.4091V16.7955H47.1903V14.4091H54.7159ZM49.0483 11.2727H52.1335V23.5625C52.1335 23.9773 52.196 24.2955 52.321 24.517C52.4517 24.733 52.6222 24.8807 52.8324 24.9602C53.0426 25.0398 53.2756 25.0795 53.5312 25.0795C53.7244 25.0795 53.9006 25.0653 54.0597 25.0369C54.2244 25.0085 54.3494 24.983 54.4347 24.9602L54.9545 27.3722C54.7898 27.429 54.554 27.4915 54.2472 27.5597C53.946 27.6278 53.5767 27.6676 53.1392 27.679C52.3665 27.7017 51.6705 27.5852 51.0511 27.3295C50.4318 27.0682 49.9403 26.6648 49.5767 26.1193C49.2188 25.5739 49.0426 24.892 49.0483 24.0739V11.2727ZM62.8658 27.7557C61.5874 27.7557 60.4794 27.4744 59.5419 26.9119C58.6044 26.3494 57.8771 25.5625 57.3601 24.5511C56.8487 23.5398 56.593 22.358 56.593 21.0057C56.593 19.6534 56.8487 18.4687 57.3601 17.4517C57.8771 16.4347 58.6044 15.6449 59.5419 15.0824C60.4794 14.5199 61.5874 14.2386 62.8658 14.2386C64.1442 14.2386 65.2521 14.5199 66.1896 15.0824C67.1271 15.6449 67.8516 16.4347 68.3629 17.4517C68.88 18.4687 69.1385 19.6534 69.1385 21.0057C69.1385 22.358 68.88 23.5398 68.3629 24.5511C67.8516 25.5625 67.1271 26.3494 66.1896 26.9119C65.2521 27.4744 64.1442 27.7557 62.8658 27.7557ZM62.8828 25.2841C63.576 25.2841 64.1555 25.0937 64.6214 24.7131C65.0874 24.3267 65.4339 23.8097 65.6612 23.1619C65.8942 22.5142 66.0107 21.7926 66.0107 20.9972C66.0107 20.196 65.8942 19.4716 65.6612 18.8239C65.4339 18.1705 65.0874 17.6506 64.6214 17.2642C64.1555 16.8778 63.576 16.6847 62.8828 16.6847C62.1726 16.6847 61.5817 16.8778 61.1101 17.2642C60.6442 17.6506 60.2947 18.1705 60.0618 18.8239C59.8345 19.4716 59.7209 20.196 59.7209 20.9972C59.7209 21.7926 59.8345 22.5142 60.0618 23.1619C60.2947 23.8097 60.6442 24.3267 61.1101 24.7131C61.5817 25.0937 62.1726 25.2841 62.8828 25.2841ZM74.8423 19.8295V27.5H71.7571V14.4091H74.706V16.6335H74.8594C75.1605 15.9006 75.6406 15.3182 76.2997 14.8864C76.9645 14.4545 77.7855 14.2386 78.7628 14.2386C79.6662 14.2386 80.4531 14.4318 81.1236 14.8182C81.7997 15.2045 82.3224 15.7642 82.6918 16.4972C83.0668 17.2301 83.2514 18.1193 83.2457 19.1648V27.5H80.1605V19.642C80.1605 18.767 79.9332 18.0824 79.4787 17.5881C79.0298 17.0937 78.4077 16.8466 77.6122 16.8466C77.0724 16.8466 76.5923 16.9659 76.1719 17.2045C75.7571 17.4375 75.4304 17.7756 75.1918 18.2188C74.9588 18.6619 74.8423 19.1989 74.8423 19.8295ZM92.0923 27.7557C90.8139 27.7557 89.706 27.4744 88.7685 26.9119C87.831 26.3494 87.1037 25.5625 86.5866 24.5511C86.0753 23.5398 85.8196 22.358 85.8196 21.0057C85.8196 19.6534 86.0753 18.4687 86.5866 17.4517C87.1037 16.4347 87.831 15.6449 88.7685 15.0824C89.706 14.5199 90.8139 14.2386 92.0923 14.2386C93.3707 14.2386 94.4787 14.5199 95.4162 15.0824C96.3537 15.6449 97.0781 16.4347 97.5895 17.4517C98.1065 18.4687 98.3651 19.6534 98.3651 21.0057C98.3651 22.358 98.1065 23.5398 97.5895 24.5511C97.0781 25.5625 96.3537 26.3494 95.4162 26.9119C94.4787 27.4744 93.3707 27.7557 92.0923 27.7557ZM92.1094 25.2841C92.8026 25.2841 93.3821 25.0937 93.848 24.7131C94.3139 24.3267 94.6605 23.8097 94.8878 23.1619C95.1207 22.5142 95.2372 21.7926 95.2372 20.9972C95.2372 20.196 95.1207 19.4716 94.8878 18.8239C94.6605 18.1705 94.3139 17.6506 93.848 17.2642C93.3821 16.8778 92.8026 16.6847 92.1094 16.6847C91.3991 16.6847 90.8082 16.8778 90.3366 17.2642C89.8707 17.6506 89.5213 18.1705 89.2884 18.8239C89.0611 19.4716 88.9474 20.196 88.9474 20.9972C88.9474 21.7926 89.0611 22.5142 89.2884 23.1619C89.5213 23.8097 89.8707 24.3267 90.3366 24.7131C90.8082 25.0937 91.3991 25.2841 92.1094 25.2841ZM112.988 27.5H107.073V10.0455H113.107C114.84 10.0455 116.329 10.3949 117.573 11.0938C118.823 11.7869 119.783 12.7841 120.454 14.0852C121.124 15.3864 121.46 16.9432 121.46 18.7557C121.46 20.5739 121.121 22.1364 120.445 23.4432C119.775 24.75 118.806 25.7528 117.539 26.4517C116.278 27.1506 114.761 27.5 112.988 27.5ZM110.235 24.7642H112.835C114.05 24.7642 115.065 24.5426 115.877 24.0994C116.69 23.6506 117.3 22.983 117.71 22.0966C118.119 21.2045 118.323 20.0909 118.323 18.7557C118.323 17.4205 118.119 16.3125 117.71 15.4318C117.3 14.5455 116.695 13.8835 115.894 13.446C115.099 13.0028 114.11 12.7812 112.928 12.7812H110.235V24.7642ZM130.123 27.7557C128.81 27.7557 127.677 27.483 126.722 26.9375C125.773 26.3864 125.043 25.608 124.532 24.6023C124.021 23.5909 123.765 22.4006 123.765 21.0312C123.765 19.6847 124.021 18.5028 124.532 17.4858C125.049 16.4631 125.771 15.6676 126.697 15.0994C127.623 14.5256 128.711 14.2386 129.961 14.2386C130.768 14.2386 131.529 14.3693 132.245 14.6307C132.967 14.8864 133.603 15.2841 134.154 15.8239C134.711 16.3636 135.148 17.0511 135.467 17.8864C135.785 18.7159 135.944 19.7045 135.944 20.8523V21.7983H125.214V19.7188H132.987C132.981 19.1278 132.853 18.6023 132.603 18.142C132.353 17.6761 132.004 17.3097 131.555 17.0426C131.112 16.7756 130.594 16.642 130.004 16.642C129.373 16.642 128.819 16.7955 128.342 17.1023C127.864 17.4034 127.492 17.8011 127.225 18.2955C126.964 18.7841 126.83 19.321 126.825 19.9062V21.7216C126.825 22.483 126.964 23.1364 127.242 23.6818C127.521 24.2216 127.91 24.6364 128.41 24.9261C128.91 25.2102 129.495 25.3523 130.165 25.3523C130.614 25.3523 131.021 25.2898 131.384 25.1648C131.748 25.0341 132.063 24.8438 132.33 24.5938C132.597 24.3438 132.799 24.0341 132.935 23.6648L135.816 23.9886C135.634 24.75 135.288 25.4148 134.776 25.983C134.271 26.5455 133.623 26.983 132.833 27.2955C132.043 27.6023 131.14 27.7557 130.123 27.7557ZM148.901 17.8693L146.088 18.1761C146.009 17.892 145.869 17.625 145.67 17.375C145.477 17.125 145.216 16.9233 144.886 16.7699C144.557 16.6165 144.153 16.5398 143.676 16.5398C143.034 16.5398 142.494 16.679 142.057 16.9574C141.625 17.2358 141.412 17.5966 141.418 18.0398C141.412 18.4205 141.551 18.7301 141.835 18.9688C142.125 19.2074 142.602 19.4034 143.267 19.5568L145.5 20.0341C146.739 20.3011 147.659 20.7244 148.261 21.304C148.869 21.8835 149.176 22.642 149.182 23.5795C149.176 24.4034 148.935 25.1307 148.457 25.7614C147.986 26.3864 147.33 26.875 146.489 27.2273C145.648 27.5795 144.682 27.7557 143.591 27.7557C141.989 27.7557 140.699 27.4205 139.722 26.75C138.744 26.0739 138.162 25.1335 137.974 23.929L140.983 23.6392C141.119 24.2301 141.409 24.6761 141.852 24.9773C142.295 25.2784 142.872 25.429 143.582 25.429C144.315 25.429 144.903 25.2784 145.347 24.9773C145.795 24.6761 146.02 24.304 146.02 23.8608C146.02 23.4858 145.875 23.1761 145.585 22.9318C145.301 22.6875 144.858 22.5 144.256 22.3693L142.023 21.9006C140.767 21.6392 139.838 21.1989 139.236 20.5795C138.634 19.9545 138.335 19.1648 138.341 18.2102C138.335 17.4034 138.554 16.7045 138.997 16.1136C139.446 15.517 140.068 15.0568 140.864 14.733C141.665 14.4034 142.588 14.2386 143.634 14.2386C145.168 14.2386 146.375 14.5653 147.256 15.2188C148.142 15.8722 148.69 16.7557 148.901 17.8693ZM151.726 27.5V14.4091H154.811V27.5H151.726ZM153.277 12.5511C152.788 12.5511 152.368 12.3892 152.016 12.0653C151.663 11.7358 151.487 11.3409 151.487 10.8807C151.487 10.4148 151.663 10.0199 152.016 9.69602C152.368 9.36648 152.788 9.2017 153.277 9.2017C153.771 9.2017 154.192 9.36648 154.538 9.69602C154.891 10.0199 155.067 10.4148 155.067 10.8807C155.067 11.3409 154.891 11.7358 154.538 12.0653C154.192 12.3892 153.771 12.5511 153.277 12.5511ZM163.677 32.6818C162.569 32.6818 161.617 32.5313 160.822 32.2301C160.026 31.9347 159.387 31.5369 158.904 31.0369C158.421 30.5369 158.086 29.983 157.898 29.375L160.677 28.7017C160.802 28.9574 160.984 29.2102 161.222 29.4602C161.461 29.7159 161.782 29.9261 162.185 30.0909C162.594 30.2614 163.109 30.3466 163.728 30.3466C164.603 30.3466 165.327 30.1335 165.901 29.7074C166.475 29.2869 166.762 28.5938 166.762 27.6278V25.1477H166.609C166.45 25.4659 166.217 25.7926 165.91 26.1278C165.609 26.4631 165.208 26.7443 164.708 26.9716C164.214 27.1989 163.592 27.3125 162.842 27.3125C161.836 27.3125 160.924 27.0767 160.106 26.6051C159.293 26.1278 158.646 25.4176 158.163 24.4744C157.685 23.5256 157.447 22.3381 157.447 20.9119C157.447 19.4744 157.685 18.2614 158.163 17.2727C158.646 16.2784 159.296 15.5256 160.114 15.0142C160.933 14.4972 161.844 14.2386 162.85 14.2386C163.617 14.2386 164.248 14.3693 164.742 14.6307C165.242 14.8864 165.64 15.196 165.935 15.5597C166.231 15.9176 166.455 16.2557 166.609 16.5739H166.779V14.4091H169.822V27.7131C169.822 28.8324 169.555 29.7585 169.021 30.4915C168.487 31.2244 167.756 31.7727 166.83 32.1364C165.904 32.5 164.853 32.6818 163.677 32.6818ZM163.702 24.892C164.356 24.892 164.913 24.733 165.373 24.4148C165.833 24.0966 166.183 23.6392 166.421 23.0426C166.66 22.446 166.779 21.7301 166.779 20.8949C166.779 20.071 166.66 19.3494 166.421 18.7301C166.188 18.1108 165.842 17.6307 165.381 17.2898C164.927 16.9432 164.367 16.7699 163.702 16.7699C163.015 16.7699 162.441 16.9489 161.981 17.3068C161.521 17.6648 161.174 18.1562 160.941 18.7812C160.708 19.4006 160.592 20.1051 160.592 20.8949C160.592 21.696 160.708 22.3977 160.941 23C161.18 23.5966 161.529 24.0625 161.989 24.3977C162.455 24.7273 163.026 24.892 163.702 24.892ZM176.069 19.8295V27.5H172.984V14.4091H175.933V16.6335H176.086C176.387 15.9006 176.867 15.3182 177.526 14.8864C178.191 14.4545 179.012 14.2386 179.989 14.2386C180.893 14.2386 181.68 14.4318 182.35 14.8182C183.026 15.2045 183.549 15.7642 183.918 16.4972C184.293 17.2301 184.478 18.1193 184.472 19.1648V27.5H181.387V19.642C181.387 18.767 181.16 18.0824 180.705 17.5881C180.256 17.0937 179.634 16.8466 178.839 16.8466C178.299 16.8466 177.819 16.9659 177.398 17.2045C176.984 17.4375 176.657 17.7756 176.418 18.2188C176.185 18.6619 176.069 19.1989 176.069 19.8295Z" fill="#111928"/>
</svg>
